<svg xmlns="http://www.w3.org/2000/svg" viewBox="0 0 482 768"><defs><style>.cls-1,.cls-2{fill:#4d4d4d;}.cls-2{stroke:#fff;stroke-miterlimit:10;stroke-width:4px;}</style></defs><title>資產 1</title><g id="圖層_2" data-name="圖層 2"><g id="圖層_1-2" data-name="圖層 1"><rect class="cls-1" width="482" height="768"/><polygon class="cls-2" points="84.72 109.93 84.72 100.01 56.94 100.01 56.94 109.93 46.93 109.93 46.93 142.99 94.07 142.99 94.07 109.93 84.72 109.93"/><polygon class="cls-2" points="148.72 109.93 148.72 100.01 120.94 100.01 120.94 109.93 110.93 109.93 110.93 142.99 158.07 142.99 158.07 109.93 148.72 109.93"/><polygon class="cls-2" points="212.72 109.93 212.72 100.01 184.94 100.01 184.94 109.93 174.93 109.93 174.93 142.99 222.07 142.99 222.07 109.93 212.72 109.93"/><polygon class="cls-2" points="297.72 109.93 297.72 100.01 269.94 100.01 269.94 109.93 259.93 109.93 259.93 142.99 307.07 142.99 307.07 109.93 297.72 109.93"/><polygon class="cls-2" points="361.72 109.93 361.72 100.01 333.94 100.01 333.94 109.93 323.93 109.93 323.93 142.99 371.07 142.99 371.07 109.93 361.72 109.93"/><polygon class="cls-2" points="425.72 109.93 425.72 100.01 397.94 100.01 397.94 109.93 387.93 109.93 387.93 142.99 435.07 142.99 435.07 109.93 425.72 109.93"/><polygon class="cls-2" points="84.72 184.93 84.72 175.01 56.94 175.01 56.94 184.93 46.93 184.93 46.93 217.99 94.07 217.99 94.07 184.93 84.72 184.93"/><polygon class="cls-2" points="148.72 184.93 148.72 175.01 120.94 175.01 120.94 184.93 110.93 184.93 110.93 217.99 158.07 217.99 158.07 184.93 148.72 184.93"/><polygon class="cls-2" points="212.72 184.93 212.72 175.01 184.94 175.01 184.94 184.93 174.93 184.93 174.93 217.99 222.07 217.99 222.07 184.93 212.72 184.93"/><polygon class="cls-2" points="297.72 184.93 297.72 175.01 269.94 175.01 269.94 184.93 259.93 184.93 259.93 217.99 307.07 217.99 307.07 184.93 297.72 184.93"/><polygon class="cls-2" points="361.72 184.93 361.72 175.01 333.94 175.01 333.94 184.93 323.93 184.93 323.93 217.99 371.07 217.99 371.07 184.93 361.72 184.93"/><polygon class="cls-2" points="425.72 184.93 425.72 175.01 397.94 175.01 397.94 184.93 387.93 184.93 387.93 217.99 435.07 217.99 435.07 184.93 425.72 184.93"/><polygon class="cls-2" points="84.72 259.93 84.72 250.01 56.94 250.01 56.94 259.93 46.93 259.93 46.93 292.99 94.07 292.99 94.07 259.93 84.72 259.93"/><polygon class="cls-2" points="148.72 259.93 148.72 250.01 120.94 250.01 120.94 259.93 110.93 259.93 110.93 292.99 158.07 292.99 158.07 259.93 148.72 259.93"/><polygon class="cls-2" points="212.72 259.93 212.72 250.01 184.94 250.01 184.94 259.93 174.93 259.93 174.93 292.99 222.07 292.99 222.07 259.93 212.72 259.93"/><polygon class="cls-2" points="297.72 259.93 297.72 250.01 269.94 250.01 269.94 259.93 259.93 259.93 259.93 292.99 307.07 292.99 307.07 259.93 297.72 259.93"/><polygon class="cls-2" points="361.72 259.93 361.72 250.01 333.94 250.01 333.94 259.93 323.93 259.93 323.93 292.99 371.07 292.99 371.07 259.93 361.72 259.93"/><polygon class="cls-2" points="425.72 259.93 425.72 250.01 397.94 250.01 397.94 259.93 387.93 259.93 387.93 292.99 435.07 292.99 435.07 259.93 425.72 259.93"/><polygon class="cls-2" points="84.72 334.93 84.72 325.01 56.94 325.01 56.94 334.93 46.93 334.93 46.93 367.99 94.07 367.99 94.07 334.93 84.72 334.93"/><polygon class="cls-2" points="148.72 334.93 148.72 325.01 120.94 325.01 120.94 334.93 110.93 334.93 110.93 367.99 158.07 367.99 158.07 334.93 148.72 334.93"/><polygon class="cls-2" points="212.72 334.93 212.72 325.01 184.94 325.01 184.94 334.93 174.93 334.93 174.93 367.99 222.07 367.99 222.07 334.93 212.72 334.93"/><polygon class="cls-2" points="297.72 334.93 297.72 325.01 269.94 325.01 269.94 334.93 259.93 334.93 259.93 367.99 307.07 367.99 307.07 334.93 297.72 334.93"/><polygon class="cls-2" points="361.72 334.93 361.72 325.01 333.94 325.01 333.94 334.93 323.93 334.93 323.93 367.99 371.07 367.99 371.07 334.93 361.72 334.93"/><polygon class="cls-2" points="425.72 334.93 425.72 325.01 397.94 325.01 397.94 334.93 387.93 334.93 387.93 367.99 435.07 367.99 435.07 334.93 425.72 334.93"/><polygon class="cls-2" points="84.72 409.93 84.72 400.01 56.94 400.01 56.94 409.93 46.93 409.93 46.93 442.99 94.07 442.99 94.07 409.93 84.72 409.93"/><polygon class="cls-2" points="148.72 409.93 148.72 400.01 120.94 400.01 120.94 409.93 110.93 409.93 110.93 442.99 158.07 442.99 158.07 409.93 148.72 409.93"/><polygon class="cls-2" points="212.72 409.93 212.72 400.01 184.94 400.01 184.94 409.93 174.93 409.93 174.93 442.99 222.07 442.99 222.07 409.93 212.72 409.93"/><polygon class="cls-2" points="297.72 409.93 297.72 400.01 269.94 400.01 269.94 409.93 259.93 409.93 259.93 442.99 307.07 442.99 307.07 409.93 297.72 409.93"/><polygon class="cls-2" points="361.72 409.93 361.72 400.01 333.94 400.01 333.94 409.93 323.93 409.93 323.93 442.99 371.07 442.99 371.07 409.93 361.72 409.93"/><polygon class="cls-2" points="425.72 409.93 425.72 400.01 397.94 400.01 397.94 409.93 387.93 409.93 387.93 442.99 435.07 442.99 435.07 409.93 425.72 409.93"/><polygon class="cls-2" points="84.72 484.93 84.72 475.01 56.94 475.01 56.94 484.93 46.93 484.93 46.93 517.99 94.07 517.99 94.07 484.93 84.72 484.93"/><polygon class="cls-2" points="148.72 484.93 148.72 475.01 120.94 475.01 120.94 484.93 110.93 484.93 110.93 517.99 158.07 517.99 158.07 484.93 148.72 484.93"/><polygon class="cls-2" points="212.72 484.93 212.72 475.01 184.94 475.01 184.94 484.93 174.93 484.93 174.93 517.99 222.07 517.99 222.07 484.93 212.72 484.93"/><polygon class="cls-2" points="297.72 484.93 297.72 475.01 269.94 475.01 269.94 484.93 259.93 484.93 259.93 517.99 307.07 517.99 307.07 484.93 297.72 484.93"/><polygon class="cls-2" points="361.72 484.93 361.72 475.01 333.94 475.01 333.94 484.93 323.93 484.93 323.93 517.99 371.07 517.99 371.07 484.93 361.72 484.93"/><polygon class="cls-2" points="425.72 484.93 425.72 475.01 397.94 475.01 397.94 484.93 387.93 484.93 387.93 517.99 435.07 517.99 435.07 484.93 425.72 484.93"/><polygon class="cls-2" points="84.72 559.93 84.72 550.01 56.94 550.01 56.94 559.93 46.93 559.93 46.93 592.99 94.07 592.99 94.07 559.93 84.72 559.93"/><polygon class="cls-2" points="148.72 559.93 148.72 550.01 120.94 550.01 120.94 559.93 110.93 559.93 110.93 592.99 158.07 592.99 158.07 559.93 148.72 559.93"/><polygon class="cls-2" points="212.72 559.93 212.72 550.01 184.94 550.01 184.94 559.93 174.93 559.93 174.93 592.99 222.07 592.99 222.07 559.93 212.72 559.93"/><polygon class="cls-2" points="297.72 559.93 297.72 550.01 269.94 550.01 269.94 559.93 259.93 559.93 259.93 592.99 307.07 592.99 307.07 559.93 297.72 559.93"/><polygon class="cls-2" points="361.72 559.93 361.72 550.01 333.94 550.01 333.94 559.93 323.93 559.93 323.93 592.99 371.07 592.99 371.07 559.93 361.72 559.93"/><polygon class="cls-2" points="425.72 559.93 425.72 550.01 397.94 550.01 397.94 559.93 387.93 559.93 387.93 592.99 435.07 592.99 435.07 559.93 425.72 559.93"/><polygon class="cls-2" points="84.72 634.93 84.72 625.01 56.94 625.01 56.94 634.93 46.93 634.93 46.93 667.99 94.07 667.99 94.07 634.93 84.72 634.93"/><polygon class="cls-2" points="148.72 634.93 148.72 625.01 120.94 625.01 120.94 634.93 110.93 634.93 110.93 667.99 158.07 667.99 158.07 634.93 148.72 634.93"/><polygon class="cls-2" points="212.72 634.93 212.72 625.01 184.94 625.01 184.94 634.93 174.93 634.93 174.93 667.99 222.07 667.99 222.07 634.93 212.72 634.93"/><polygon class="cls-2" points="297.72 634.93 297.72 625.01 269.94 625.01 269.94 634.93 259.93 634.93 259.93 667.99 307.07 667.99 307.07 634.93 297.72 634.93"/><polygon class="cls-2" points="361.72 634.93 361.72 625.01 333.94 625.01 333.94 634.93 323.93 634.93 323.93 667.99 371.07 667.99 371.07 634.93 361.72 634.93"/><polygon class="cls-2" points="425.72 634.93 425.72 625.01 397.94 625.01 397.94 634.93 387.93 634.93 387.93 667.99 435.07 667.99 435.07 634.93 425.72 634.93"/></g></g></svg>