<svg xmlns="http://www.w3.org/2000/svg" width="60" height="70.38" viewBox="0 0 60 70.38">
  <path id="Icon_metro-bitcoin" data-name="Icon metro-bitcoin" d="M63.388,26.062q.9,7.7-6.537,10.912,5.838,1.184,8.733,4.356t2.246,9.051a14.1,14.1,0,0,1-1.622,5.287,11.98,11.98,0,0,1-3.219,3.764,17.149,17.149,0,0,1-4.84,2.474,33.678,33.678,0,0,1-6.063,1.459A70.6,70.6,0,0,1,44.825,64V74.787H37.14V64.171q-3.992,0-6.088-.042V74.787H23.368V64q-.9,0-2.695-.021t-2.745-.021H7.948l1.547-7.74h5.539q2.495,0,2.894-2.157v-17h.8a5.973,5.973,0,0,0-.8-.042V24.878Q17.28,22,13.487,22H7.948V15.065l10.579.042q3.194,0,4.841-.042V4.407h7.685V14.854q4.092-.085,6.088-.085V4.407h7.685V15.065a51.934,51.934,0,0,1,6.986.952,25.209,25.209,0,0,1,5.639,1.9,10.873,10.873,0,0,1,4.117,3.3,9.7,9.7,0,0,1,1.821,4.843ZM52.659,49.113a4.959,4.959,0,0,0-.748-2.707,6.671,6.671,0,0,0-1.846-1.946,10.128,10.128,0,0,0-2.869-1.29,27.693,27.693,0,0,0-3.269-.782,34.582,34.582,0,0,0-3.693-.381q-2.2-.127-3.443-.127t-3.219.042q-1.971.042-2.37.042v14.3q.4,0,1.846.021t2.4.021q.948,0,2.645-.063t2.919-.169q1.223-.106,2.844-.359a21.951,21.951,0,0,0,2.769-.592,18.639,18.639,0,0,0,2.37-.888,6.914,6.914,0,0,0,1.971-1.269,5.909,5.909,0,0,0,1.223-1.692,4.865,4.865,0,0,0,.474-2.157ZM49.117,28.981a4.852,4.852,0,0,0-.624-2.474,6.054,6.054,0,0,0-1.522-1.776,7.85,7.85,0,0,0-2.4-1.184,19.532,19.532,0,0,0-2.745-.7q-1.247-.211-3.069-.338T35.868,22.4q-1.073.021-2.695.042t-1.971.021V35.452q.249,0,1.721.021t2.32,0q.848-.021,2.5-.085a24.78,24.78,0,0,0,2.745-.233q1.1-.169,2.57-.465a9.427,9.427,0,0,0,2.42-.782,13.851,13.851,0,0,0,1.846-1.142,4.145,4.145,0,0,0,1.347-1.628,5.078,5.078,0,0,0,.449-2.157Z" transform="translate(-7.948 -4.407)" fill="#fff"/>
</svg>
