<svg xmlns="http://www.w3.org/2000/svg" width="95.912" height="71.934" viewBox="0 0 95.912 71.934">
  <path id="Icon_metro-credit-card" data-name="Icon metro-credit-card" d="M89.491,5.784H11.562a9.018,9.018,0,0,0-8.992,8.992v53.95a9.018,9.018,0,0,0,8.992,8.992H89.491a9.018,9.018,0,0,0,8.992-8.992V14.776a9.018,9.018,0,0,0-8.992-8.992ZM11.562,11.779H89.491a3.037,3.037,0,0,1,3,3v8.992H8.565V14.776a3.037,3.037,0,0,1,3-3ZM89.491,71.723H11.562a3.037,3.037,0,0,1-3-3V41.751H92.488V68.726A3.037,3.037,0,0,1,89.491,71.723ZM14.56,53.74h5.994V65.729H14.56Zm11.989,0h5.994V65.729H26.549Zm11.989,0h5.994V65.729H38.538Z" transform="translate(-2.571 -5.784)" fill="#fff"/>
</svg>
