<svg xmlns="http://www.w3.org/2000/svg" width="68.54" height="70.375" viewBox="0 0 68.54 70.375">
  <path id="Icon_zocial-paypal" data-name="Icon zocial-paypal" d="M0,62.74,13.653.036H44.477A18.653,18.653,0,0,1,51.268,1.3a17.333,17.333,0,0,1,5.947,3.906,13.957,13.957,0,0,1,3.695,6.65,21.925,21.925,0,0,1-.035,9.5,25.058,25.058,0,0,1-9.043,15.06A25.856,25.856,0,0,1,35.4,41.909H22.52L18.086,62.74H0Zm7.038,7.671H25.124L29.558,49.65H42.507a25.712,25.712,0,0,0,16.4-5.489A25.44,25.44,0,0,0,67.982,29.1q1.971-9.5-3.026-15.412A18.88,18.88,0,0,1,65.8,25.653a25.058,25.058,0,0,1-9.043,15.06A25.856,25.856,0,0,1,40.325,46.2H27.446L23.013,66.963H7.812ZM25.124,29.945h5.841l2.956-12.879h8.8q.141,0,1.2.211A5.926,5.926,0,0,0,41.7,14.005a6.357,6.357,0,0,0-3.906-1.232h-8.8Zm8.8-.07a10.286,10.286,0,0,0,6.3-2.6,10.662,10.662,0,0,0,3.695-5.912,1.925,1.925,0,0,1,.07-.422,1.925,1.925,0,0,0,.07-.422H36.032Z" transform="translate(0 -0.036)" fill="#fff"/>
</svg>
